<svg xmlns="http://www.w3.org/2000/svg" width="120" height="120" viewBox="0 0 240 240"><title>Asset 1</title><g id="Layer_2" data-name="Layer 2"><g id="Layer_1-2" data-name="Layer 1"><path d="M0,119.41A120,120,0,1,1,119.41,240,120,120,0,0,1,0,119.41ZM119.44,234.55a114.55,114.55,0,1,0-114-115.11A114.55,114.55,0,0,0,119.44,234.55Zm-83.5-115a84.06,84.06,0,1,1,83.65,84.47A84.06,84.06,0,0,1,35.94,119.59Zm83.68,78.55c43.15.21,78.32-35.83,78.53-77.76.22-44.39-34.61-78.31-77.76-78.53S42.07,75.23,41.86,119.62C41.65,161.54,76.45,197.93,119.62,198.14ZM89.53,21.39a2.87,2.87,0,0,0-1.72,1.42,3,3,0,0,0-.12,2.3,2.79,2.79,0,0,0,3.6,1.72,2.83,2.83,0,0,0,2-3.64,2.88,2.88,0,0,0-1.42-1.7A2.94,2.94,0,0,0,89.53,21.39ZM42.9,164a11.06,11.06,0,0,0-7-4.87,10.56,10.56,0,0,0-8,1.78c-5.39,3.59-6.48,9.23-2.83,14.7a10.84,10.84,0,0,0,6.83,4.77,10.71,10.71,0,0,0,8.14-1.8,10.29,10.29,0,0,0,4.61-6.55A10.68,10.68,0,0,0,42.9,164Zm-2.09,4.8A8.91,8.91,0,0,1,36.75,174c-4,2.68-7.48,2.68-9.26,0a4.08,4.08,0,0,1-.74-2.51c.13-2.53,2.74-4.71,4.6-5.95,3.82-2.54,7.12-2.53,8.84,0A4.14,4.14,0,0,1,40.81,168.84Zm-5.64-14.52a3,3,0,0,1,2,.5.48.48,0,0,0,.63,0,.46.46,0,0,0,.1-.54l-.59-1.18a19.07,19.07,0,0,1-1.17-2.53,15.73,15.73,0,0,1-.48-1.86,25.94,25.94,0,0,0-.91-3.33,11.11,11.11,0,0,0-5.55-6.65,10.77,10.77,0,0,0-8.4-.15c-2.86,1-4.8,2.56-5.76,4.59-1.11,2.34-1,5.37.4,9.25.37,1,.82,2.07,1.25,3.08l.94,2.27a19.21,19.21,0,0,1,.91,3.22c0,.21.22.36.52.38s.56-.07.6-.3a2.74,2.74,0,0,1,1.24-1.71,44.25,44.25,0,0,1,6.75-2.93A37.4,37.4,0,0,1,35.17,154.32Zm-16.12-.68a19.09,19.09,0,0,1-1-2.17h0a5.38,5.38,0,0,1-.35-2.15,4.86,4.86,0,0,1,.45-1.82c.77-1.64,2.46-3,4.89-3.83,4.52-1.61,7.62-.78,8.73,2.34a6.9,6.9,0,0,1,.45,2.36,1,1,0,0,1-.19.61c-.27.28-1.33.7-5.95,2.34C23,152.44,20.6,153.18,19.06,153.64Zm6.61-34.12a.74.74,0,0,0-.07.28.48.48,0,0,0,.16.41h0c1.21.85,1.7,1.71,2,4.88a14.94,14.94,0,0,1,.1,2.25c0,.91-.24,1.2-.39,1.29a27.09,27.09,0,0,1-4.88.84,37.59,37.59,0,0,1-.23-4.68,2.39,2.39,0,0,1,.33-1.38.43.43,0,0,0,.09-.26.91.91,0,0,0-.16-.52c-.17-.25-.35-.23-.42-.2a8.72,8.72,0,0,1-1.9.35,13.24,13.24,0,0,1-1.87,0,.29.29,0,0,0-.29.21.91.91,0,0,0-.05.27.68.68,0,0,0,.13.51c.46.46,1.1,2.29,1.5,6-1.86.19-4,.33-5.48.39l-.08-.49-.28-1.89a9.24,9.24,0,0,1,0-1.44,4.07,4.07,0,0,1,1.18-3.05.35.35,0,0,0,.13-.27.72.72,0,0,0-.08-.35c-.12-.23-.3-.34-.47-.29-.62.1-2.06.25-2.6.27l-.94-.07-.56-.08a.55.55,0,0,0-.49.21.52.52,0,0,0,0,.5c.35.85.92,3.66,1.48,9a38.73,38.73,0,0,1,.23,4.77c0,.13,0,.33.37.44s.59.08.7-.15A2.72,2.72,0,0,1,14.42,136a38.51,38.51,0,0,1,7.25-1.3,37.36,37.36,0,0,1,7.82-.25,3.18,3.18,0,0,1,1.81,1,.47.47,0,0,0,.56.12.5.5,0,0,0,.29-.45,15.28,15.28,0,0,0-.46-2.25,13,13,0,0,1-.39-1.84l-.14-2.76c-.06-1.63-.14-3.65-.29-5.06-.23-2.15-.55-2.73-1-3a9.94,9.94,0,0,0-3.8-.94A.41.41,0,0,0,25.67,119.52Zm-7.8-7.5a2.94,2.94,0,0,0-.93,2.09h0a2.87,2.87,0,0,0,.7,2.12,3,3,0,0,0,2.1,1,2.79,2.79,0,0,0,2.91-2.73,3.05,3.05,0,0,0-.73-2.23,2.78,2.78,0,0,0-1.94-.91A2.88,2.88,0,0,0,17.87,112ZM12.41,99.84c-.18.05-.61.29-.56.54v0a19.67,19.67,0,0,1-.27,3.47,18.91,18.91,0,0,1-.78,3.58c-.08.19,0,.42.28.58s.52.2.67,0a2.74,2.74,0,0,1,1.9-.93,48.63,48.63,0,0,1,7.32.67,46.35,46.35,0,0,1,7.73,1.57,2,2,0,0,1,1.14,1.13l0,.05c.07.17.3.25.6.21.14,0,.46-.08.49-.31,0,0,.09-1.52.09-1.52l.17-2.42c.13-.89.51-2.37.82-3.55a.49.49,0,0,0-.26-.55.64.64,0,0,0-.72,0,2.81,2.81,0,0,1-2,1.09,41.82,41.82,0,0,1-7.44-.69c-2.8-.4-5.72-1-6.83-1.29A2.58,2.58,0,0,1,12.89,100,.36.36,0,0,0,12.41,99.84Zm4.33-16.65a.57.57,0,0,0-.37.44h0a8.46,8.46,0,0,1-.75,2.28,20.2,20.2,0,0,0-.85,2.28c-.83,2.89-.79,4.77.16,6.47A5.18,5.18,0,0,0,18,97.12c2.6.75,4.82,0,7-2.35,2.53-2.75,3.72-3.07,5-2.7a1.73,1.73,0,0,1,1.06.86,3.27,3.27,0,0,1,.16,2.43,4.45,4.45,0,0,1-4,3.45.42.42,0,0,0-.4.4c0,.26.08.68.3.75h.05a7.06,7.06,0,0,1,1.49.32,8.12,8.12,0,0,1,2.47,1.34.69.69,0,0,0,.68,0,.37.37,0,0,0,.22-.31A13.19,13.19,0,0,1,33,98.55a22.5,22.5,0,0,0,1-2.63c1.34-4.65,0-8.06-3.7-9.11-2.26-.65-4.38.19-6.66,2.64-1.94,2.11-3.21,3.1-4.72,2.66a2,2,0,0,1-1.24-.95,3,3,0,0,1-.12-2.3c.56-2,1.68-3,3.24-3,.13,0,.32-.07.38-.37s0-.69-.26-.77l-.46-.07-.91-.17a4.92,4.92,0,0,1-2.3-1.2A.45.45,0,0,0,16.74,83.19Zm21-9.25a.53.53,0,0,0-.25.56h0c.53,1.59.84,2.13-.21,4.41-.66,1.43-1,1.57-1.48,1.55s-2.39-.77-6-2.51a59.94,59.94,0,0,1-6.1-3.34,3,3,0,0,1-1.35-2c0-.08-.12-.33-.55-.27,0,0-.56.08-.55.35A23.7,23.7,0,0,1,19.87,76a18.36,18.36,0,0,1-1.78,3.11c-.14.15-.1.4.1.63s.44.35.64.21a2.9,2.9,0,0,1,2.09-.32,55.3,55.3,0,0,1,6.74,2.93,37.36,37.36,0,0,1,6.8,3.88,3.14,3.14,0,0,1,1.08,1.7.47.47,0,0,0,.42.4.5.5,0,0,0,.49-.24,17.9,17.9,0,0,0,.76-1.93,15.11,15.11,0,0,1,.62-1.59l.95-1.93,1.39-2.76c.91-1.9,1.09-2.46.71-3a22.93,22.93,0,0,0-2.52-3.19A.48.48,0,0,0,37.73,73.95Zm16.2-15.29c-.17-.19-.44-.35-.62-.21a3.79,3.79,0,0,1-1,.18,55.75,55.75,0,0,1-8.08-1.95l-1.8-.51-1.55-.45C37.9,54.86,36,54.3,32.6,53.07L32.44,53l-.07.16a30.93,30.93,0,0,1-2.73,4.44l-.09.12.09.11c1.71,2,3.8,4.85,6.83,9.09,2.48,3.43,4.3,6.17,4.66,6.83a2.45,2.45,0,0,1,.28,1c0,.17.17.3.45.34.11,0,.46.05.53-.18a10.57,10.57,0,0,1,1.21-2.1,8.08,8.08,0,0,1,1.24-1.44c.16-.15.11-.44,0-.66s-.27-.36-.42-.34-.38-.05-.66-.21a21,21,0,0,1-2.87-3.1l3.79-5.19a20.6,20.6,0,0,1,3.86,1.6,1.18,1.18,0,0,1,.56.65c0,.08.09.21.37.28,0,0,.48.11.64-.1a23.33,23.33,0,0,1,1.54-2.5A33.76,33.76,0,0,1,54,59.3C54.16,59.18,54.19,58.94,53.93,58.65ZM39.27,65.06c-.79-1-2.77-3.74-4.06-5.78,2.16.48,4.53,1.15,6.45,1.7l.49.14ZM57.7,29.33l-.16.16a23.19,23.19,0,0,1-4.28,3.23c-.08,0-.2.17-.13.46s.19.53.45.55a2.64,2.64,0,0,1,1.6.35c.75.52,2.82,3,6.16,7.45-1.64,0-3.37,0-6.89-.18a59.76,59.76,0,0,1-9.61-1.29l-.11,0-.07.09a28.17,28.17,0,0,1-4,4.16c-.14.13-.12.36,0,.63s.29.39.49.3a2.79,2.79,0,0,1,1.26-.27c1.05.05,2.58,1.31,6.54,5.4a53,53,0,0,1,5.2,6,1.41,1.41,0,0,1,.23,1.14.47.47,0,0,0,.27.49.61.61,0,0,0,.7,0l.52-.66a9.76,9.76,0,0,1,1.33-1.45l1.41-1.11.63-.47c.2-.18,0-.58,0-.6-.16-.31-.36-.3-.44-.29a2.76,2.76,0,0,1-1.44-.22c-.86-.5-3.06-2.72-7.08-7.15.67,0,7.79.46,7.79.46l3.88.16c2.26.1,4.6.21,6.6.22.29,0,.59-.35.7-.55a.8.8,0,0,0,.12-.35.34.34,0,0,0,0-.21c-1.1-1.49-2-2.55-3.12-3.92l-2.8-3.63c-2.73-3.79-4.29-5.75-4.81-6.79a2.72,2.72,0,0,1-.2-1.14.89.89,0,0,1,.07-.33.3.3,0,0,0,0-.1c0-.22-.21-.43-.36-.54S57.76,29.27,57.7,29.33Zm26.09-5c-1.64-2.56-3.58-4.1-5.78-4.58-2.53-.55-5.45.26-8.92,2.48-.92.59-1.83,1.26-2.72,1.91l-2,1.43a19.23,19.23,0,0,1-2.94,1.61c-.2.06-.3.29-.25.59s.19.53.43.52a2.76,2.76,0,0,1,2,.8,46.54,46.54,0,0,1,4.35,5.94,38.43,38.43,0,0,1,3.73,6.86,3.45,3.45,0,0,1,0,2.06.48.48,0,0,0,.19.6.46.46,0,0,0,.55,0l1-.84A19.2,19.2,0,0,1,75.58,42a15.7,15.7,0,0,1,1.7-.89,25.81,25.81,0,0,0,3-1.64,11.12,11.12,0,0,0,5.23-6.91A10.77,10.77,0,0,0,83.78,24.36ZM79,36.81c-1,.67-2.37,1.27-2.88,1h0c-.35-.17-1.09-1.28-3.67-5.29-1.8-2.8-3-4.87-3.87-6.38a20.9,20.9,0,0,1,2-1.51,5,5,0,0,1,3.89-.79c1.77.38,3.45,1.72,4.84,3.9C82,31.92,81.87,35,79,36.81ZM105.59,11h0a8.44,8.44,0,0,1-2.37.4,20.24,20.24,0,0,0-2.41.3c-2.95.61-4.59,1.52-5.66,3.14a5.18,5.18,0,0,0-.75,3.86c.55,2.65,2.23,4.27,5.32,5.09,3.61,1,4.33,1.86,4.6,3.19s-1,2.34-2.34,2.61a4.29,4.29,0,0,1-4.78-1.9.41.41,0,0,0-.54-.17c-.24.09-.57.38-.52.61v.05a7.06,7.06,0,0,1,.41,1.46,8.21,8.21,0,0,1,0,2.81.69.69,0,0,0,.29.61.38.38,0,0,0,.38.06,13.17,13.17,0,0,1,2.9-.45,21,21,0,0,0,2.67-.36c2.68-.55,4.57-1.64,5.62-3.22a5.58,5.58,0,0,0,.73-4.28c-.47-2.31-2.08-3.79-5.31-4.67-2.77-.74-4.23-1.4-4.55-2.95-.27-1.31.61-2.38,2.24-2.71,2-.41,3.42.11,4.14,1.49,0,.12.21.25.51.16s.61-.31.55-.59l-.15-.44-.28-.88a4.94,4.94,0,0,1,0-2.59.45.45,0,0,0-.13-.51A.57.57,0,0,0,105.59,11Zm21.9-.71h0l-.33,0-.77.05-1.83-.13L122,10.05c-4.06-.1-6.54.77-8.71,2.8-1.82,1.73-2.78,4.28-2.86,7.57-.14,5.93,3.79,10.14,9.84,10.29,2.9.07,4.94-.44,5.68-1,.46-.36.94-1.5,1.61-3.36,0-.08,0-.23-.21-.4s-.48-.21-.66,0a6.53,6.53,0,0,1-4.76,1.41c-4-.1-6.06-3-5.94-7.9.06-2.44.69-4.24,1.86-5.36a4.71,4.71,0,0,1,3.63-1.33c2.31.06,4.25,1.09,4.93,2.63.11.23.48.19.68.12.37-.12.38-.32.36-.41a11,11,0,0,1,.48-4.21.41.41,0,0,0,0-.39A.48.48,0,0,0,127.49,10.26Zm4.78.73a.43.43,0,0,0,0,.51l0,0A2.72,2.72,0,0,1,133,13.2a64.07,64.07,0,0,1-1.16,7.28,58,58,0,0,1-2,7.8,2.38,2.38,0,0,1-1.42,1.22.49.49,0,0,0-.23.53c0,.23.12.39.27.42a14.3,14.3,0,0,0,2.2.29,13.66,13.66,0,0,1,1.61.19,16.12,16.12,0,0,1,2,.57l1.68.5c.22.05.41-.17.51-.4a.76.76,0,0,0,.06-.24.36.36,0,0,0-.16-.34,2.82,2.82,0,0,1-.85-1.8,5,5,0,0,1,0-.75,41.45,41.45,0,0,1,.9-5.33l4.38.92L145,25c-.27,1.2-1.54,5.38-1.81,6A2,2,0,0,1,142,32.35h0l0,0a.45.45,0,0,0-.16.37,1.31,1.31,0,0,0,0,.37c.08.29.24.33.33.33a20.25,20.25,0,0,1,3.52.49,19.82,19.82,0,0,1,2.2.77l.77.3a.5.5,0,0,0,.58-.25.85.85,0,0,0,.15-.42.49.49,0,0,0-.12-.36l0,0h0a2.69,2.69,0,0,1-.57-1.32,3.17,3.17,0,0,1,0-.64,49.51,49.51,0,0,1,1.52-7.64c.62-2.39,1.64-5.81,2.07-6.81a2,2,0,0,1,1.08-1.22l.3-.18a.42.42,0,0,0,.19-.34.59.59,0,0,0,0-.16.61.61,0,0,0-.5-.48l-1-.12a14.25,14.25,0,0,1-2.09-.34l-.77-.25-2.3-.77a.48.48,0,0,0-.55.19.59.59,0,0,0-.11.32.5.5,0,0,0,.1.33,2.22,2.22,0,0,1,.48,1.59h0c0,.6-.87,4.3-1.3,6a32.55,32.55,0,0,1-3.24-.66l-1-.24c-1.28-.29-3.59-.82-4.54-1.1a49.81,49.81,0,0,1,1.67-6.25,2.22,2.22,0,0,1,1-1.06.44.44,0,0,0,.25-.38.57.57,0,0,0,0-.13.53.53,0,0,0-.46-.45h0l-1.14-.14c-.71-.08-1.51-.17-2.33-.33l-.37-.07a13.63,13.63,0,0,1-2.59-.64A.67.67,0,0,0,132.27,11Zm35.8,9.82a10.84,10.84,0,0,0-8.3-.74,10.71,10.71,0,0,0-6.17,5.61,11.31,11.31,0,0,0-1.22,4.46,9.49,9.49,0,0,0,.48,3.52,10.68,10.68,0,0,0,5.51,6.09c4.69,2.34,11.25,1.84,14.55-4.79C175.81,29.18,173.95,23.75,168.06,20.82Zm-.44,11.86c-2,4.11-4.92,5.73-7.69,4.35a4.14,4.14,0,0,1-2.15-2.48,8.9,8.9,0,0,1,.94-6.53c2.15-4.32,5.16-6,8-4.61C170.58,25.33,168.94,30,167.62,32.69Zm27,9.77a11.75,11.75,0,0,0-11.89-10.08,10.71,10.71,0,0,0-7.37,3.91,10.29,10.29,0,0,0-2.7,7.54,10.68,10.68,0,0,0,3.83,7.27,11.06,11.06,0,0,0,8,2.84,10.56,10.56,0,0,0,7.26-3.85A10.49,10.49,0,0,0,194.65,42.46Zm-7.4,4.09c-3,3.47-6.19,4.33-8.53,2.31s-1.87-5.62,1.07-9c3.16-3.65,6.5-4.58,8.93-2.47C191.93,40.15,189.17,44.32,187.24,46.55Zm13.54-.4c-.26.07-.5.25-.46.49h0a2.9,2.9,0,0,1-.6,2,55.66,55.66,0,0,1-5.53,4.83A37.41,37.41,0,0,1,187.76,58a3.14,3.14,0,0,1-2,.24.47.47,0,0,0-.54.21.51.51,0,0,0,0,.54,18,18,0,0,0,1.42,1.52,15.05,15.05,0,0,1,1.17,1.24l1.4,1.91c.81,1.13,1.81,2.53,2.71,3.64,1.33,1.63,1.75,2,2.44,1.94a23,23,0,0,0,4-.92.49.49,0,0,0,.21-.57c0-.2-.17-.44-.4-.46-1.53-.18-2.42-.69-4.42-3.14-1-1.25-1.34-1.93-1.11-2.35s1.72-1.83,4.85-4.37a60.09,60.09,0,0,1,5.63-4.08,3,3,0,0,1,2.4-.35c.08,0,.35,0,.48-.38,0,0,.17-.54-.08-.65a23.71,23.71,0,0,1-2.45-2.67,18.21,18.21,0,0,1-2.05-2.94C201.31,46.14,201.07,46.07,200.78,46.15Zm1.74,15.21a2.79,2.79,0,0,0-.79,3.91,3.05,3.05,0,0,0,1.89,1.39,2.79,2.79,0,0,0,2.11-.38,2.82,2.82,0,0,0,.85-4,2.87,2.87,0,0,0-1.8-1.33A3,3,0,0,0,202.52,61.36ZM221,76A10.84,10.84,0,0,0,215.18,70a10.71,10.71,0,0,0-8.34.3,10,10,0,0,0-6.43,8.73,11.41,11.41,0,0,0,1,5.09,11.06,11.06,0,0,0,6,6.05,11.53,11.53,0,0,0,14.11-5.91A10.76,10.76,0,0,0,221,76Zm-2.58,4.29c-.68,1.69-2.55,3.24-5.42,4.47-4.22,1.81-7.46,1.19-8.68-1.65a4.17,4.17,0,0,1-.34-1.87c.11-2.22,2-4.39,5.24-5.77,2.65-1.14,5-1.39,6.74-.71a4.26,4.26,0,0,1,2.37,2.38A4,4,0,0,1,218.45,80.27Zm6.77,11.25h0a2.74,2.74,0,0,1-1.49,1.5,42.93,42.93,0,0,1-7.18,1.77,37.39,37.39,0,0,1-7.78.89,2.93,2.93,0,0,1-1.76-.73c-.18-.2-.52-.13-.71,0s-.25.29-.24.35a15.4,15.4,0,0,0,.65,2.2,13.06,13.06,0,0,1,.54,1.81l.1,1.29a21,21,0,0,0,.23,2.53c0,.17.2.29.44.32a.51.51,0,0,0,.54-.2,2.83,2.83,0,0,1,1.43-1.69,29.51,29.51,0,0,1,5.08-1.3,24.83,24.83,0,0,1,.54,4.86,2.53,2.53,0,0,1-.39,1.41.29.29,0,0,0-.07.19.85.85,0,0,0,.16.47c.2.29.4.25.47.22a11.61,11.61,0,0,1,1.87-.51,8.4,8.4,0,0,1,2-.08.3.3,0,0,0,.32-.18,1,1,0,0,0,.09-.38.58.58,0,0,0-.1-.41c-.78-.6-1.39-2.38-2.1-6.13,2-.38,5.05-.84,6.38-1l.14.56.36,1.55a11.27,11.27,0,0,1,.21,2.64,4.81,4.81,0,0,1-1,2.92.42.42,0,0,0-.1.25.65.65,0,0,0,.12.4.37.37,0,0,0,.44.17,8.52,8.52,0,0,1,2.18-.64,8.23,8.23,0,0,1,2,0,.42.42,0,0,0,.41-.18.53.53,0,0,0,.08-.58c-.37-.73-1.18-3.6-2.26-9.32a37.45,37.45,0,0,1-.61-4.67c0-.2-.16-.38-.45-.45S225.31,91.3,225.22,91.52Zm-5.66,19.38a2.8,2.8,0,0,0-2.6,2.67,3.43,3.43,0,0,0,0,.36,3.06,3.06,0,0,0,1,2.14,2.78,2.78,0,0,0,2,.69,2.94,2.94,0,0,0-.41-5.86Zm10,8.83c-.23-.13-.53-.17-.67,0a2.74,2.74,0,0,1-1.84,1,44.22,44.22,0,0,1-7.36-.17,37.38,37.38,0,0,1-7.72-1.27,3,3,0,0,1-1.59-1.29.48.48,0,0,0-.59-.22.46.46,0,0,0-.32.45v0l0,1.34a19.3,19.3,0,0,1,0,2.79,15.84,15.84,0,0,1-.34,1.89,25.81,25.81,0,0,0-.57,3.41,11.11,11.11,0,0,0,2.25,8.36,10.77,10.77,0,0,0,7.56,3.65c3,.27,5.44-.32,7.16-1.76,2-1.66,3.14-4.46,3.51-8.56.1-1.08.13-2.22.16-3.32l.1-2.46a19.38,19.38,0,0,1,.53-3.31C229.92,120.1,229.8,119.88,229.54,119.74Zm-3.25,8.82c0,.18,0,.36,0,.53a5,5,0,0,1-1.76,3.56c-1.39,1.17-3.48,1.66-6,1.43-4.78-.43-7.25-2.49-6.95-5.78.11-1.21.5-2.6,1-2.8s1.5-.08,6.38.37c3.32.3,5.69.61,7.41.86C226.32,127.41,226.32,128,226.29,128.56Zm-18.63,9.89a.51.51,0,0,0-.45.3h0a15.28,15.28,0,0,0-.45,2.25,13,13,0,0,1-.36,1.85l-1,2.59c-.58,1.52-1,2.41-1.45,3.76-.63,2.06-.56,2.73-.26,3.1a9.91,9.91,0,0,0,3.13,2.36.41.41,0,0,0,.5-.08.58.58,0,0,0,.19-.67c-.79-1.27-1-1.85-.08-4.89.82-2.67,1.24-2.51,1.51-2.54a27.13,27.13,0,0,1,4.82,1.14c-.58,1.82-1.7,5.27-2.47,5.54a.57.57,0,0,0-.26.5,1,1,0,0,0,0,.23c.06.3.23.35.3.35a8.73,8.73,0,0,1,1.87.42,13.21,13.21,0,0,1,1.73.73.29.29,0,0,0,.35-.08,1.13,1.13,0,0,0,.26-.6.29.29,0,0,0,0-.15,2.87,2.87,0,0,1-.09-1.1,22.85,22.85,0,0,1,1.06-5c1.78.55,3.8,1.27,5.2,1.79l-.13.51-.48,1.82c-.61,2-1.71,3.42-2.81,3.69a.45.45,0,0,0-.29.46.86.86,0,0,0,0,.1c0,.26.14.43.32.45.61.15,2,.58,2.49.77l.84.43.48.29a.55.55,0,0,0,.53,0,.52.52,0,0,0,.23-.44c0-.92.59-3.73,2.17-8.87a38.76,38.76,0,0,1,1.65-4.48c.08-.11.09-.33-.17-.55s-.51-.31-.7-.14a2.72,2.72,0,0,1-2,.59,38.53,38.53,0,0,1-7.18-1.65,37.38,37.38,0,0,1-7.29-2.84,3.17,3.17,0,0,1-1.29-1.59A.47.47,0,0,0,207.66,138.45Zm-5,15.68a.37.37,0,0,0-.28.26v0a13.07,13.07,0,0,1-1.47,2.57,21.38,21.38,0,0,0-1.41,2.33c-2.21,4.31-1.51,7.92,1.88,9.65,2.1,1.08,4.33.66,7-1.3,2.31-1.7,3.74-2.43,5.15-1.71a2,2,0,0,1,1,1.17,3,3,0,0,1-.32,2.28c-.93,1.81-2.22,2.6-3.75,2.29-.12,0-.32,0-.45.29s-.14.67.11.81l.44.16.86.34a4.94,4.94,0,0,1,2,1.62.45.45,0,0,0,.47.22.57.57,0,0,0,.45-.37,8.49,8.49,0,0,1,1.17-2.08,20.41,20.41,0,0,0,1.27-2.07c1.37-2.68,1.69-4.53,1.09-6.38a5.19,5.19,0,0,0-2.54-3c-2.41-1.23-4.73-.93-7.3,1-3,2.21-4.24,2.3-5.44,1.68a1.73,1.73,0,0,1-.88-1,3.28,3.28,0,0,1,.31-2.41,4.33,4.33,0,0,1,4.49-2.57.41.41,0,0,0,.47-.31c.08-.24.05-.68-.15-.79h0a7.11,7.11,0,0,1-1.4-.6,8.15,8.15,0,0,1-2.17-1.79A.69.69,0,0,0,202.66,154.13Zm-7.56,13.6-.77,1.33-1.23,2.07c-.53.75-1.59,2-2.33,2.8a.49.49,0,0,0,0,.61.64.64,0,0,0,.65.33,2.81,2.81,0,0,1,2.28-.07,41.75,41.75,0,0,1,6.33,4c2.31,1.62,4.66,3.46,5.52,4.24a2.58,2.58,0,0,1,1,2.13c0,.14.07.33.35.38s.67,0,.75-.23a19.93,19.93,0,0,1,1.79-2.95,18.9,18.9,0,0,1,2.31-2.84c.16-.13.17-.38,0-.64s-.38-.41-.6-.31a2.74,2.74,0,0,1-2.11,0,48.87,48.87,0,0,1-6.23-3.9,46.47,46.47,0,0,1-6.19-4.89,2,2,0,0,1-.51-1.52v-.06c0-.18-.15-.36-.45-.46C195.54,167.62,195.23,167.54,195.1,167.73Zm-11.68,14.2h0A21.65,21.65,0,0,0,179,188l-.73,1.34.09.11c1.32,1.29,3.54,3.51,4.27,4.32s1.06,1.44,1,2c0,.08,0,.35.48.44.13,0,.55.09.62-.15l0,0,.33-.53a6.28,6.28,0,0,1,1.18-1.5,16.24,16.24,0,0,1,2.55-2.19c.12-.06.23-.25.1-.57s-.32-.51-.56-.44a2.19,2.19,0,0,1-1.67-.29,31.07,31.07,0,0,1-3.49-3.14,4.76,4.76,0,0,1,1.45-2.48,5.23,5.23,0,0,1,3.8-1.65,9.4,9.4,0,0,1,6.42,3,6.9,6.9,0,0,1,2.43,4.77,6.09,6.09,0,0,1-2,4.33c-2.31,2.37-3.68,2.61-5.86,2.26-.26,0-.45.38-.49.47-.14.35,0,.5.07.55a11.86,11.86,0,0,1,2.73,3.4.45.45,0,0,0,.33.26.47.47,0,0,0,.43-.14l.78-1,1.68-1.6,2.22-2.13c2.74-2.81,4.07-5.66,4.05-8.71a10.27,10.27,0,0,0-3.47-7.28C193.39,177.3,187.78,177.46,183.42,181.93Zm-8.16,7.82h0l-.59.57a11.64,11.64,0,0,1-1.64,1.41l-1.54.9-.7.39c-.22.15-.09.54-.08.58.08.23.22.36.4.35a2.75,2.75,0,0,1,1.4.42c.79.62,2.66,3.12,6,8.07L171,201.09l-3.85-.7c-2.21-.41-4.5-.84-6.48-1.13-.29-.05-.63.27-.77.45a.53.53,0,0,0-.14.54c.88,1.62,1.75,3.05,2.66,4.57l2.16,3.63a65.28,65.28,0,0,1,4.08,7.57,2.3,2.3,0,0,1-.07,1.48c-.13.23.09.53.25.67s.39.16.46.12l.19-.14a22.41,22.41,0,0,1,4.63-2.77c.09,0,.22-.14.19-.44s-.11-.55-.37-.6a2.64,2.64,0,0,1-1.54-.57c-.68-.63-2.41-3.31-5.28-8.15,1.63.19,3.33.5,6.8,1.13a59.27,59.27,0,0,1,9.21,2.43l.11,0,.08-.08a28.13,28.13,0,0,1,4.51-3.57c.16-.11.17-.34,0-.63s-.23-.43-.45-.37a2.8,2.8,0,0,1-1.28.1c-1-.2-2.37-1.66-5.73-6.26a43.55,43.55,0,0,1-4.3-6.8,1.65,1.65,0,0,1,0-1.21.47.47,0,0,0-.2-.53A.61.61,0,0,0,175.26,189.76ZM80.73,204.4a2.81,2.81,0,0,0-1.53,1.52,2.43,2.43,0,0,0-.2.86,2.69,2.69,0,0,0,.18,1.1,2.64,2.64,0,0,0,1.44,1.47,2.59,2.59,0,0,0,3.6-1.3,2.77,2.77,0,0,0-3.49-3.65ZM77,212.84a2.75,2.75,0,0,0-1.5,1.49h0a2.62,2.62,0,0,0,1.4,3.47,2.59,2.59,0,0,0,3.6-1.3,2.78,2.78,0,0,0-3.5-3.66Zm18.92-7.16h0a9.26,9.26,0,0,1-3.07.49,32.91,32.91,0,0,1-3.55-.16.58.58,0,0,0-.52.48.42.42,0,0,0,.14.5,1.82,1.82,0,0,1,.89,1.64,30.6,30.6,0,0,1-1.52,6.43,32.16,32.16,0,0,1-2.47,6.44,1.81,1.81,0,0,1-1.26,1,.6.6,0,0,0-.31.62c0,.26.11.44.27.49l1.48.31,2.38.53c.84.26,2.15.82,3.31,1.33a.49.49,0,0,0,.58-.18.64.64,0,0,0,.11-.72,2.74,2.74,0,0,1-.66-2.11,39.33,39.33,0,0,1,1.8-7.25,86.75,86.75,0,0,1,3.18-9.16.44.44,0,0,0-.09-.47A.69.69,0,0,0,95.9,205.68Zm20.32,8.69c0-.13,0-.26,0-.39.16-3.16-2.34-5.34-6.77-5.86a8.35,8.35,0,0,0-6,1.58,5.42,5.42,0,0,0-2.12,3.66c0,.16,0,.32,0,.47a5,5,0,0,0,2.1,4.43c-2.26,1-3.74,2.78-4,4.69,0,.13,0,.27,0,.4-.16,3.08,2.19,5.2,6.36,5.69,6,.71,9.59-2.12,10-5.29,0-.16,0-.32,0-.47.11-2.12-.85-3.65-3.18-5.15C114.29,217.33,116,216.26,116.22,214.37Zm-5.68,9.84a3,3,0,0,1-3.65,2.57,3.38,3.38,0,0,1-3.15-3.57c0-.08,0-.17,0-.26a3.89,3.89,0,0,1,2-3c1.54.66,4.89,2.14,4.78,4.19C110.55,224.13,110.55,224.17,110.54,224.21Zm1.75-10.62c0,.09,0,.18,0,.27a3.93,3.93,0,0,1-2.47,2.84c-2.59-1.13-3.77-2.4-3.69-4,0-.07,0-.14,0-.21a2.56,2.56,0,0,1,.92-1.73,3.06,3.06,0,0,1,2.3-.53A3,3,0,0,1,112.29,213.59Zm20.11-5.28h0a33.15,33.15,0,0,1-5.42.76,16.58,16.58,0,0,1-6.2-.31.7.7,0,0,0-.57.17.44.44,0,0,0-.16.36,14,14,0,0,1-.57,4.88.31.31,0,0,0,.21.38c.2.09.64.15.78-.09.85-1.25,1.86-1.72,6.34-2.07a82.82,82.82,0,0,1-2.74,13.2,6.73,6.73,0,0,1-2.21,3.21.36.36,0,0,0-.13.26.59.59,0,0,0,.05.25s.18.41.42.39a11.24,11.24,0,0,0,4.6-1.86c1.45-1.36,2.58-3.74,3.38-7.08l.95-4c.62-2.62,1.2-5.1,2-8a.39.39,0,0,0-.12-.4A.64.64,0,0,0,132.4,208.32Zm15.31-3.65h0a33.13,33.13,0,0,1-5.2,1.68,16.56,16.56,0,0,1-6.17.76.7.7,0,0,0-.53.27.44.44,0,0,0-.09.38,14,14,0,0,1,.27,4.9c0,.13,0,.28.27.34s.65,0,.76-.22c.62-1.38,1.54-2,5.88-3.14.13,3.61.08,6.9-.05,9.36a37.79,37.79,0,0,1-.37,4.11,6.73,6.73,0,0,1-1.62,3.54.37.37,0,0,0-.09.22.53.53,0,0,0,.1.31s.24.37.48.31a11.2,11.2,0,0,0,4.21-2.63c1.19-1.59,1.9-4.13,2.11-7.55l.25-4.06c.16-2.69.3-5.23.62-8.2a.39.39,0,0,0-.19-.37A.65.65,0,0,0,147.71,204.66Zm5.94.54h0a2.68,2.68,0,0,0-1.49,1.45,2.8,2.8,0,0,0,.06,2.15,2.63,2.63,0,0,0,3.48,1.32,2.77,2.77,0,0,0,1.56-1.5,2.62,2.62,0,0,0,0-2A2.59,2.59,0,0,0,153.64,205.2Zm3.6,8.51a2.7,2.7,0,0,0-1.51,1.46,2.52,2.52,0,0,0-.18.82,3,3,0,0,0,.24,1.3,2.62,2.62,0,0,0,3.49,1.36,2.59,2.59,0,0,0,1.51-3.52A2.57,2.57,0,0,0,157.25,213.71Zm-79-14.64a14.45,14.45,0,0,0-1.94-1,14,14,0,0,1-1.47-.74,9.24,9.24,0,0,1-1.5-1.24,10.7,10.7,0,0,0-1.48-1.24.47.47,0,0,0-.62.19.65.65,0,0,0-.15.36.35.35,0,0,0,.1.28,1.67,1.67,0,0,1,.47,1.28,1.26,1.26,0,0,1-.07.39,48.2,48.2,0,0,1-2.8,4.93l-1.56-1.1a28.69,28.69,0,0,1,0-3.56,26.38,26.38,0,0,0,0-4.91C67,191.56,61.78,188,61.78,188c-.44-.34-1.35-1.08-1.74-1.46A16.13,16.13,0,0,1,58.68,185l-1.13-1.33c-.15-.16-.43-.09-.64.06a.54.54,0,0,0-.26.39.32.32,0,0,0,0,.15,1.39,1.39,0,0,1,.09.63,3.47,3.47,0,0,1-.37,1.34c-.43.82-1.43,1.95-4.07,4.61l-3.16-3.17-3-3.16c.88-.86,4.24-3.66,4.82-4.07a2,2,0,0,1,1.67-.41h.06c.27,0,.46-.41.51-.55s0-.41-.09-.46a20.23,20.23,0,0,1-2.68-2.33A20.13,20.13,0,0,1,49,174.88l-.48-.68a.5.5,0,0,0-.62-.1.65.65,0,0,0-.45.64v.05a2.7,2.7,0,0,1-.24,1.42c-.37.84-2.48,3.07-5.79,6.11-1.83,1.66-4.55,4-5.45,4.57a2,2,0,0,1-1.57.43H34.1a.45.45,0,0,0-.43.33.61.61,0,0,0,.16.68l.75.63a14.23,14.23,0,0,1,1.56,1.43l.53.65,1.49,1.88a.48.48,0,0,0,.57.15.55.55,0,0,0,.37-.47.45.45,0,0,0,0-.06,2.12,2.12,0,0,1,0-.35,2.43,2.43,0,0,1,.48-1.24c.35-.48,3.08-3.13,4.39-4.35a32.92,32.92,0,0,1,2.36,2.33l.72.76c.92,1,2.56,2.66,3.2,3.41a49.74,49.74,0,0,1-4.81,4.32,2.23,2.23,0,0,1-1.4.35.45.45,0,0,0-.47.29.53.53,0,0,0,.14.63l.88.75c.55.45,1.17,1,1.76,1.55l.26.25a13.74,13.74,0,0,1,1.83,2,.66.66,0,0,0,.75.09.43.43,0,0,0,.29-.42,2.77,2.77,0,0,1,.31-1.82,65.63,65.63,0,0,1,4.95-5.46c2.45-2.55,5-4.87,5.42-5.19a2.43,2.43,0,0,1,1.45-.67c.5,0,.48,1,.48,1.36.06,2.87,0,5.15,0,7.62,0,0,0,1.11,0,1.39-1.95.07-4.32.48-5.84,2.83a5.1,5.1,0,0,0-.89,2.51c-.1,2,1.32,4,4.3,5.89.91.59,1.91,1.15,2.87,1.69l2.13,1.23A13.84,13.84,0,0,1,67,216a.54.54,0,0,0,.69,0c.22-.15.32-.36.23-.54a3,3,0,0,1,0-2A56,56,0,0,1,71.64,207a54.15,54.15,0,0,1,4.59-6.4,2.55,2.55,0,0,1,1.71-.66.45.45,0,0,0,.46-.33A.53.53,0,0,0,78.22,199.08Zm-15,11.55c-1.46-.63-3.22-1.57-3.06-4,.14-2.2,2.36-4.3,3.38-4.3a5.62,5.62,0,0,1,3.93,2C67.21,204.85,64.32,208.89,63.2,210.63Zm79.73-112a27.49,27.49,0,0,1-5.35,5.88c0-1.54-2.85-3.65-6.11-3.67-2.73,0-5.33,1.25-5.35,4.43,0,5.12,2.29,7.08,6.42,11.62,4.85,5.15,8.2,8.85,8.18,13,0,8.66-9.79,15.86-18,15.82a14.18,14.18,0,0,1-5.73-1.3c0-2.93,2.09-6.37,4.05-8.56.72,2.2,3.94,4.43,8.33,4.43,2.52,0,5.56-1.9,5.58-5.2,0-3-3.24-7.28-8-12.23-4.61-4.66-7.13-8.1-7.11-12.61,0-8.9,9.36-14.48,17-14.44C139.7,95.85,142.08,97.2,142.93,98.67ZM113,139.24c-.54,2.6-1.53,3.82-4.05,5.2-1.23.67-5.19.8-12.84.76a24.09,24.09,0,0,0,2.06-5.35c.57-2.57,1.29-6.2,2.75-16.51,1.53-10.81,2.29-16.58,2.9-21.17a35.16,35.16,0,0,0-6.88.31,18.84,18.84,0,0,1,4.66-4.74c1-.51,3-1.15,11.31-1.15-1.3,3.59-2.9,12.3-4.43,23.31s-2,14.17-2.67,20C108.06,139.94,111.37,140,113,139.24ZM66.51,118.46a18.66,18.66,0,0,0,4.13.23A13.23,13.23,0,0,0,76,117.62a10.54,10.54,0,0,0,5.35-9.48c0-4.64-3.4-8.14-12.05-8.2C68.44,105.75,67.26,112.91,66.51,118.46Zm94.87,45.7c0-3.29-3.1-5.44-7.49-5.46a39.43,39.43,0,0,0-11.68,2C144.9,163,148,167.28,148,172c0,.24,0,1,0,1.63C154.61,172.59,161.36,169.26,161.38,164.15Zm-48.2,6.17c3.06-1.45,6-2.69,9.72-4.45-1.82-2.57-4.48-4.07-8.75-4.09a15.47,15.47,0,0,0-8.6,2.1A26.77,26.77,0,0,0,113.18,170.32Zm11,3.53a6.35,6.35,0,0,0,.38-2.29,10.31,10.31,0,0,0-.54-3.29c-2.81,1.33-5.31,2.48-7.83,3.48A28.33,28.33,0,0,0,124.2,173.86Zm-32.59.92c0-4.27,2.24-7.23,6-9.9a49.17,49.17,0,0,1-7.82-9.8c-7.1,2.17-12,6-12,11.2,0,3.29,1.76,9.67,11,9.71.73,0,1.81-.08,2.72,0C91.58,175.6,91.61,175,91.61,174.78Zm7.87-.15a54.09,54.09,0,0,0,9-2.83,33.61,33.61,0,0,1-7.14-4.43A10.69,10.69,0,0,0,99.48,174.62Zm4-13.18a31.56,31.56,0,0,1,10.93-1.95c5.73,0,10.27,1.78,13.18,4.36,2.57-1.08,4.44-1.87,6.85-2.87-5.34-5.39-13.94-8.62-26.13-8.68a74.83,74.83,0,0,0-10.52.8C100.06,156.65,101.55,158.89,103.46,161.44Zm31,13.26c2,0,3.66-.06,5.49,0A17.37,17.37,0,0,0,136.25,163c-2.56,1-4.29,1.7-6.85,2.89a8.59,8.59,0,0,1,2.25,5.73,9.24,9.24,0,0,1-.42,2.9A28.93,28.93,0,0,0,134.48,174.7Zm-34.65,2.75c1.1,5.66,9.1,11.79,20,11.84,11.1.05,17.9-5.65,19.83-12-1.83.08-3.21.09-5.16.08-1.59,0-3.2,0-4.91-.16-1.84,2.8-5.77,4.46-10.4,4.44-2.68,0-5.7-1.43-6.93-3.3-.19-.29,0-.94.39-.71a7.5,7.5,0,0,0,4.24,1.15,8,8,0,0,0,5.65-2.18,52.66,52.66,0,0,1-10.85-2.9A112.52,112.52,0,0,1,99.83,177.45Zm61.44-58c-1.15,11-1.65,15.69-1.91,19.72,7.09,1,14.21.58,18.11-3.06,3.4-3.16,6.39-10.59,6.42-17.42,0-5.73-1.11-10-3.9-12.91-3.88-4-6.75-4.72-16.51-4.89C162.72,106.37,161.9,114.21,161.27,119.45Zm8.83-31.68c2.81,0,6.79-1.92,6.79-4.84,0-1.35-1.49-2.61-3.32-2.61-3.52,0-6.42,2-7.71,7A24.18,24.18,0,0,0,170.09,87.77ZM108.2,61.55c0,4.27,1.72,6.67,4.76,8.88,2.08-1.7,4.26-3.57,6.71-5.39C115.64,63.19,108.2,61.55,108.2,61.55Zm-19,10c4.39,0,9.34,1.44,16.28,5.13,1.71-1.21,2.63-2.15,4.58-3.73-5.84-2.83-9.38-6.73-9.6-12-5.8,0-10.14,1.09-13.38,2.84a11.74,11.74,0,0,0-6.53,9.34A26.4,26.4,0,0,1,89.17,71.52ZM89,73.87a18.31,18.31,0,0,0-8.51,2.06c.57,5.13,4.26,9.37,9.26,9.4,3.54,0,6.34-1.21,13-6.42C97.68,75.84,93.6,73.89,89,73.87Zm-16.45.77c0-7.8,10-16.25,27.82-16.16,1-6.7,10.67-10.62,20.06-10.57,9.63,0,19.41,4.63,24.87,9.17,13.41.07,22.2,6.4,22.18,11.52,0,2.32-2.24,4.55-5.9,4.53-1.34,0-3-1.06-3-2.18,2-.66,3.38-1.75,3.38-3.44,0-5-4.85-7.75-13.75-7.79a23.08,23.08,0,0,1,7.19,16.68,12.17,12.17,0,0,1-1.63,6.39,34.62,34.62,0,0,0,7.45,3.38A14.6,14.6,0,0,1,174,78.28c5.36,0,8.25,1.92,8.28,5.13,0,2.78-5.09,6.54-11.43,6.5-2.2,0-3.46-.07-5.53-.2-.5,2.45-.83,3.84-1.24,6.66,10-.07,17.87,0,22.85,5,3.28,3.31,4.61,8,4.58,13.22,0,8.41-4.53,17.4-10.85,22.77-6,5.12-9.44,7.79-25.45,7.79a52.42,52.42,0,0,1-6.19-.38c1.35-1.58,1.44-2.55,2.06-4.74.75-3.29,1.74-9.73,3.13-20.94.89-7.56,1.61-13.22,2.37-18.34-4.88.1-6.05.41-7.64,1.38a3.69,3.69,0,0,0-1.91,3.29,5.75,5.75,0,0,0,1.15,2.9,30.16,30.16,0,0,1-5.88,4.51,9,9,0,0,1-1.76-4.13c0-2.32,1.88-5.08,5.43-7.87a18.91,18.91,0,0,1,11.39-4.36c.75-3.78,1.72-5.38,2.49-7.76a39.23,39.23,0,0,1-8-3.41c-3.56,3.89-9.81,5.61-14.93,5.59-9.51,0-19.37-3.11-28.86-8.88-6.24,4-11.47,5.74-18.43,5.7-7.44,0-12.53-2.65-15.07-6.56-2.92,4.85-3.69,9-4.68,14.25,8.86,0,13.68.82,16.2,3.13a8,8,0,0,1,2.52,5.35c0,6.59-3.83,11.09-10.32,15.82,3.87,6.48,12.48,21.69,18.17,31.11a92.6,92.6,0,0,1,12.12-.66c10.12,0,23.56,2.7,31.58,8.71,6.11-2,11.62-3.42,15.88-3.4,9,0,14,2.62,14,6.65,0,6.59-9.55,12.49-22.54,14.29-3.27,10.31-18,15.53-28.62,15.47-15.24-.07-24.75-5.89-26.78-13.33a24.68,24.68,0,0,1-3.09.19c-11.22-.05-19.25-5.16-19.22-12,0-6.59,6.49-12,18.45-14.5-7.74-12.72-13.8-23.4-17.31-29-1.71,0-4.46.08-5.2.08-1,7.31-1.66,12.94-2.29,17a27.73,27.73,0,0,0,6.27-.46c-.5,1.58-2.95,4.18-4.43,5-.9.52-3.31.71-5.81.77s-5.17-.06-6.39-.1a20.08,20.08,0,0,0,2.72-5.25c.57-1.85,1.77-10,3.36-20.25s2.43-16,3.06-20.48c-3.41,0-5.27.23-6.5,1.15-1,.75-1.52,2.3-1.53,4.13a6.51,6.51,0,0,0,.46,2.22c-1.47,1-4.33,2.44-6,3.29A5.93,5.93,0,0,1,47.56,107a7.69,7.69,0,0,1,2.52-5.35,23.29,23.29,0,0,1,12.76-5.81c1.75-8.28,5.09-14.16,10.11-18.16A12.14,12.14,0,0,1,72.52,74.64Zm53-6.56c-2.45,1.7-4.1,3.34-6.3,5.16a20.73,20.73,0,0,0,6.08.75c3,0,5.22-.86,6.36-1.95C129.11,70.2,127.75,69.43,125.56,68.08ZM110.92,79.86c8,4.43,15.07,7.68,21.29,7.71,4.63,0,9.4-2.21,13.15-6-2.92-2-6.1-4.29-9.14-6.5a14,14,0,0,1-7,1.72,50.46,50.46,0,0,1-12.26-1.55C114.58,77.18,113,78.41,110.92,79.86Zm15.33-22.2c-.37-.12-.45-.47,0-.58,2.06-.52,5.56.33,7.51,1.32a30.89,30.89,0,0,1,7.11-1.09,33,33,0,0,0-19-6.09c-6.22,0-12.55,3-13.35,7.93a64,64,0,0,1,13.35,4.41,44.5,44.5,0,0,1,8.54-4.13A9.24,9.24,0,0,0,126.25,57.65Zm14.5,11.06A5.16,5.16,0,0,1,138.91,73c3.16,2.21,5.72,4.05,8.51,6a13,13,0,0,0,2.29-8c0-4.27-3.47-9.51-5.47-11a21.81,21.81,0,0,0-6.82,1.38A10.16,10.16,0,0,1,140.75,68.71Zm-6.13-2.41a8.25,8.25,0,0,0-.75-3.44,69.18,69.18,0,0,0-6,3.55,66.87,66.87,0,0,1,6,3.32A5.44,5.44,0,0,0,134.62,66.3Z"/></g></g></svg>